<svg width="26" height="26" viewBox="0 0 26 26" fill="none" xmlns="http://www.w3.org/2000/svg">
<path d="M9.06039 6.8591H11.8753L11.8758 7.79758H10.4306C9.41692 7.79758 8.59112 8.62355 8.59112 9.63693V14.8358H16.0988L16.0987 9.63693C16.0987 8.62355 15.2729 7.79758 14.2547 7.79758H12.8142L12.8137 6.8591H15.6295C16.9245 6.8591 17.9757 5.80337 17.9757 4.51288C17.9757 3.21782 16.9247 2.16667 15.6295 2.16667L9.06026 2.16684C7.7652 2.16684 6.71405 3.21782 6.71405 4.51306C6.71405 5.80332 7.76503 6.85909 9.06026 6.85909L9.06039 6.8591ZM13.8885 4.18C14.0621 4.0064 14.3764 4.0064 14.5548 4.18C14.6394 4.26902 14.6908 4.39088 14.6908 4.51308C14.6908 4.63494 14.6394 4.75715 14.5547 4.84616C14.4658 4.93058 14.344 4.98232 14.2216 4.98232C14.0997 4.98232 13.9779 4.93058 13.8885 4.84616C13.8041 4.75697 13.7523 4.63494 13.7523 4.51308C13.7523 4.38628 13.8041 4.26901 13.8885 4.18H13.8885ZM9.66533 4.18C9.83894 4.0064 10.1533 4.0064 10.3317 4.18C10.4164 4.26902 10.4678 4.39088 10.4678 4.51308C10.4678 4.63494 10.4164 4.75715 10.3317 4.84616C10.2428 4.93058 10.121 4.98232 9.99858 4.98232C9.87672 4.98232 9.75486 4.93058 9.6655 4.84616C9.58109 4.75697 9.52935 4.63494 9.52935 4.51308C9.52935 4.38628 9.58109 4.26425 9.66533 4.18H9.66533Z" fill="#000000"/>
<path d="M19.8525 15.7746H4.83704C2.76777 15.7746 1.08331 17.4591 1.08331 19.5283C1.08331 21.5976 2.76777 23.2821 4.83704 23.2821H19.8525C21.9218 23.2821 23.6062 21.5976 23.6062 19.5283C23.6062 17.4591 21.9218 15.7746 19.8525 15.7746ZM5.77556 21.4053C4.73853 21.4053 3.89861 20.5607 3.89861 19.5283C3.89861 18.4913 4.73853 17.6514 5.77556 17.6514C6.8126 17.6514 7.65252 18.4913 7.65252 19.5283C7.65252 20.5607 6.8126 21.4053 5.77556 21.4053ZM12.3448 21.4053C11.3077 21.4053 10.4678 20.5607 10.4678 19.5283C10.4678 18.4913 11.3077 17.6514 12.3448 17.6514C13.3818 17.6514 14.2217 18.4913 14.2217 19.5283C14.2217 20.5607 13.3818 21.4053 12.3448 21.4053ZM18.914 21.4053C17.8769 21.4053 17.037 20.5607 17.037 19.5283C17.037 18.4913 17.8769 17.6514 18.914 17.6514C19.951 17.6514 20.7909 18.4913 20.7909 19.5283C20.7909 20.5607 19.951 21.4053 18.914 21.4053Z" fill="#000000"/>
</svg>
